<svg xmlns="http://www.w3.org/2000/svg" width="2307.224" height="2320.224" viewBox="0 0 2307.224 2320.224">
  <defs>
    <style>
      .cls-1, .cls-2, .cls-3 {
        fill: #568aff;
      }

      .cls-2 {
        opacity: 0.542;
      }

      .cls-3 {
        opacity: 0.6;
      }
    </style>
  </defs>
  <g id="Shape" transform="translate(0 -0.444)">
    <path id="Oval" class="cls-1" d="M447.5,895C694.647,895,895,694.647,895,447.5c0-132.124-318.847-22.584-409.9-104.5C405.823,271.687,562.523,0,447.5,0,200.353,0,0,200.353,0,447.5S200.353,895,447.5,895Z" transform="translate(26 1207.444)"/>
    <path id="Oval_Copy" data-name="Oval Copy" class="cls-2" d="M521,1042c287.74,0,521-233.26,521-521,0-153.825-371.216-26.294-477.23-121.664C472.478,316.31,654.915,0,521,0,233.26,0,0,233.26,0,521S233.26,1042,521,1042Z" transform="matrix(-0.174, 0.985, -0.985, -0.174, 2182.111, 181.386)"/>
    <path id="Oval_Copy_3" data-name="Oval Copy 3" class="cls-3" d="M447.5,895C694.647,895,895,694.647,895,447.5c0-132.124-318.847-22.584-409.9-104.5C405.823,271.687,562.523,0,447.5,0,200.353,0,0,200.353,0,447.5S200.353,895,447.5,895Z" transform="translate(1147.133 1176.469) rotate(160)"/>
    <path id="Oval_Copy_2" data-name="Oval Copy 2" class="cls-1" d="M575,1150c317.564,0,575-257.436,575-575,0-169.769-409.691-29.019-526.693-134.274C521.449,349.095,722.8,0,575,0,257.436,0,0,257.436,0,575S257.436,1150,575,1150Z" transform="matrix(0.174, -0.985, 0.985, 0.174, 975, 2120.973)"/>
  </g>
</svg>
