<svg id="Group_13" data-name="Group 13" xmlns="http://www.w3.org/2000/svg" width="15.625" height="15.406" viewBox="0 0 15.625 15.406">
  <path id="Path_548" data-name="Path 548" d="M668.192,249.646a1.665,1.665,0,0,1-1.8,1.67,1.674,1.674,0,1,1,1.8-1.67Zm-3.45,13.736V252.635h3.341v10.747Z" transform="translate(-664.654 -247.976)" fill="#fff"/>
  <path id="Path_549" data-name="Path 549" d="M701.719,282.234c0-1.34-.044-2.461-.088-3.428h2.9l.154,1.495h.066a3.86,3.86,0,0,1,3.319-1.736c2.2,0,3.846,1.473,3.846,4.637v6.352h-3.34V283.6c0-1.385-.484-2.329-1.693-2.329a1.834,1.834,0,0,0-1.714,1.253,2.4,2.4,0,0,0-.11.835v6.2h-3.341Z" transform="translate(-696.291 -274.147)" fill="#fff"/>
</svg>
